<svg xmlns="http://www.w3.org/2000/svg" width="178.3" height="85.359" viewBox="0 0 178.3 85.359"><g transform="translate(-267.32 -208.25)"><path d="M438.552,292.341l-7.213-2.107,6.746-4.39,7.267,2.347ZM437.2,210.246l.033,8.835-6.9,5.073-.025-8.008ZM500.205,253.8l-7.317-4.125-1.1-6.877,7.255,4.451Zm-8.011-3.171,7.652,4.314-53.178,32.448-7.322-2.366Zm-53.569,26.217,39.114-25.977,6.647,3.442-45.735,29.765Zm7.884-53.316v-.039h-.069l-8.031-4.527-.033-8.936,52.089,31.958,1.109,6.949Zm.139,46.581-.106-35.4,30.006,15.538Zm-1.318-45.9.139,46.683-6.85,4.55-.206-55.132Zm40.185,29.367-38.977-20.184-.026-8.516,44.529,25.1Zm-54.978,35.782-.2-63.75,6.9-5.074.241,64.308Zm69.577-42.827-62.023-38.053-.368-.226-8.6,7.364.239,74.826v.435l9.361,2.733,62.932-38.4Z" transform="translate(-56.035)" fill="#2f4fff"></path><path d="M273.542,262.573H270.69V251.764h-3.37v-2.419h9.611v2.419h-3.389Z" transform="translate(0 -14.232)" fill="#2f4fff"></path><path d="M288.678,251.705h-1.991v3.164h1.7a7.925,7.925,0,0,0,.826-.044,2.2,2.2,0,0,0,.735-.2,1.3,1.3,0,0,0,.52-.452,1.432,1.432,0,0,0,.2-.8,2.078,2.078,0,0,0-.125-.765,1.235,1.235,0,0,0-.358-.5,2.3,2.3,0,0,0-1.507-.4m-.171,5.582h-1.82v5.227h-2.849V249.286h5.341a5.616,5.616,0,0,1,1.786.268,3.732,3.732,0,0,1,1.366.782,3.487,3.487,0,0,1,.876,1.289,4.726,4.726,0,0,1,.312,1.787,3.489,3.489,0,0,1-.6,2.035,3.366,3.366,0,0,1-1.7,1.254l2.892,5.814h-3.179Z" transform="translate(-5.721 -14.211)" fill="#2f4fff"></path><rect width="2.852" height="13.229" transform="translate(290.417 235.075)" fill="#2f4fff"></rect><path d="M310.058,249.286h2.852V260.1h5.629v2.418h-8.481Z" transform="translate(-14.801 -14.212)" fill="#2f4fff"></path><path d="M327.7,257.323h2.511l-1.219-4.694Zm3.138,2.419h-3.784l-.771,2.774h-2.868l3.855-13.229h3.37l3.8,13.229h-2.887Z" transform="translate(-19.428 -14.211)" fill="#2f4fff"></path><path d="M344.836,262.515h-2.85v-10.81h-3.37v-2.419h9.609v2.419h-3.389Z" transform="translate(-24.691 -14.212)" fill="#2f4fff"></path><path d="M355.594,249.286h8.948V251.7h-6.1v2.7h4.446v2.418l-4.446.018V260.1h6.311v2.418h-9.161Z" transform="translate(-30.571 -14.212)" fill="#2f4fff"></path><path d="M377.03,251.705h-1.992v3.164h1.7a7.925,7.925,0,0,0,.826-.044,2.188,2.188,0,0,0,.735-.2,1.308,1.308,0,0,0,.521-.452,1.437,1.437,0,0,0,.2-.8,2.062,2.062,0,0,0-.127-.765,1.235,1.235,0,0,0-.358-.5,2.3,2.3,0,0,0-1.505-.4m-.173,5.582h-1.82v5.227h-2.849V249.286h5.341a5.617,5.617,0,0,1,1.787.268,3.732,3.732,0,0,1,1.366.782,3.5,3.5,0,0,1,.877,1.289,4.739,4.739,0,0,1,.312,1.787,3.489,3.489,0,0,1-.6,2.035,3.365,3.365,0,0,1-1.7,1.254l2.892,5.814h-3.179Z" transform="translate(-36.318 -14.211)" fill="#2f4fff"></path><path d="M392.876,257.323h2.509l-1.219-4.694Zm3.136,2.419H392.23l-.771,2.774h-2.87l3.855-13.229h3.372l3.8,13.229h-2.886Z" transform="translate(-41.998 -14.211)" fill="#2f4fff"></path><path d="M407.153,249.286h2.817L410,260.1h6.47v2.418h-9.314Z" transform="translate(-48.426 -14.212)" fill="#2f4fff"></path><path d="M281.671,281.491h-1.964v3.174h1.681a7.361,7.361,0,0,0,.815-.044,2.168,2.168,0,0,0,.728-.2,1.28,1.28,0,0,0,.513-.454,1.444,1.444,0,0,0,.194-.8,2.112,2.112,0,0,0-.123-.767,1.232,1.232,0,0,0-.356-.506,2.242,2.242,0,0,0-1.488-.4m-.169,5.6h-1.8v5.242h-2.816V279.067h5.276a5.458,5.458,0,0,1,1.763.267,3.639,3.639,0,0,1,1.35.784,3.526,3.526,0,0,1,.865,1.293,4.824,4.824,0,0,1,.308,1.791,3.529,3.529,0,0,1-.59,2.041,3.318,3.318,0,0,1-1.684,1.258l2.857,5.83H283.9Z" transform="translate(-3.315 -24.525)" fill="#2f4fff"></path><path d="M295.122,279.067h8.836v2.424h-6.021v2.71h4.392v2.425l-4.392.018v3.263h6.234v2.425h-9.049Z" transform="translate(-9.628 -24.525)" fill="#2f4fff"></path><path d="M315.286,292.415a5.633,5.633,0,0,1-2.8-.767,4.394,4.394,0,0,1-1.258-1.007,5.9,5.9,0,0,1-.937-1.577l2.355-1.035a6.482,6.482,0,0,0,.461.848,2.857,2.857,0,0,0,.566.65,2.381,2.381,0,0,0,.735.419,2.731,2.731,0,0,0,.947.152,3.643,3.643,0,0,0,.726-.072,1.891,1.891,0,0,0,.63-.241,1.2,1.2,0,0,0,.434-.463,1.538,1.538,0,0,0,.16-.739,1.306,1.306,0,0,0-.673-1.107,8.621,8.621,0,0,0-1.789-.89,11.129,11.129,0,0,1-3.064-1.623,3.132,3.132,0,0,1-1.062-2.514,3.267,3.267,0,0,1,1.239-2.621,4.675,4.675,0,0,1,3.1-1.033,5.227,5.227,0,0,1,2.8.765,4.274,4.274,0,0,1,1.1.963,6.3,6.3,0,0,1,.867,1.5l-2.6.8a3.635,3.635,0,0,0-.805-1.239,1.883,1.883,0,0,0-1.371-.473,2.785,2.785,0,0,0-.577.061,1.938,1.938,0,0,0-.531.2,1.079,1.079,0,0,0-.388.374,1.061,1.061,0,0,0-.15.58.922.922,0,0,0,.167.516,1.679,1.679,0,0,0,.577.481,11.737,11.737,0,0,0,1.912.856,9.175,9.175,0,0,1,2.692,1.445A3.222,3.222,0,0,1,320,288.367a3.768,3.768,0,0,1-1.241,3.014,5.273,5.273,0,0,1-3.47,1.033" transform="translate(-14.883 -24.431)" fill="#2f4fff"></path><path d="M328.228,279.067h8.836v2.424h-6.021v2.71h4.392v2.425l-4.392.018v3.263h6.234v2.425h-9.049Z" transform="translate(-21.093 -24.525)" fill="#2f4fff"></path><path d="M346.98,287.125h2.478l-1.2-4.707Zm3.1,2.424h-3.737l-.76,2.781h-2.834l3.806-13.264h3.331l3.753,13.264h-2.852Z" transform="translate(-26.122 -24.525)" fill="#2f4fff"></path><path d="M365.949,281.491h-1.966v3.174h1.683a7.4,7.4,0,0,0,.814-.044,2.157,2.157,0,0,0,.726-.2,1.287,1.287,0,0,0,.514-.454,1.433,1.433,0,0,0,.194-.8,2.111,2.111,0,0,0-.124-.767,1.246,1.246,0,0,0-.354-.506,2.249,2.249,0,0,0-1.488-.4m-.169,5.6h-1.8v5.242h-2.815V279.067h5.275a5.463,5.463,0,0,1,1.765.267,3.67,3.67,0,0,1,1.35.784,3.5,3.5,0,0,1,.863,1.293,4.784,4.784,0,0,1,.309,1.791,3.529,3.529,0,0,1-.59,2.041,3.318,3.318,0,0,1-1.682,1.258l2.857,5.83h-3.14Z" transform="translate(-32.501 -24.525)" fill="#2f4fff"></path><path d="M383.249,292.415a5.088,5.088,0,0,1-2.511-.57,4.57,4.57,0,0,1-1.64-1.524,6.661,6.661,0,0,1-.889-2.175,11.962,11.962,0,0,1,0-5.072,6.5,6.5,0,0,1,.9-2.184,4.624,4.624,0,0,1,1.647-1.525,5.094,5.094,0,0,1,2.513-.57,5.366,5.366,0,0,1,2.834.738,3.252,3.252,0,0,1,1.07,1.081,7.376,7.376,0,0,1,.789,1.871l-2.587.624a3.79,3.79,0,0,0-.779-1.354,2.1,2.1,0,0,0-2.345-.31,2.03,2.03,0,0,0-.664.592,3.375,3.375,0,0,0-.435.836,5.744,5.744,0,0,0-.256.962,7.955,7.955,0,0,0-.116.979c-.016.324-.025.617-.025.881a6.739,6.739,0,0,0,.619,3.236,1.963,1.963,0,0,0,1.877,1.06,2.39,2.39,0,0,0,.877-.142,1.872,1.872,0,0,0,.629-.4,2.961,2.961,0,0,0,.477-.614,8.334,8.334,0,0,0,.409-.784l2.656.695a7.892,7.892,0,0,1-.858,1.686,4.518,4.518,0,0,1-1.09,1.107,5.175,5.175,0,0,1-3.1.879" transform="translate(-38.309 -24.431)" fill="#2f4fff"></path><path d="M403.23,286.8h-4.463v5.526h-2.815V279.066h2.815v5.117h4.5v-5.117h2.815V292.33h-2.85Z" transform="translate(-44.547 -24.525)" fill="#2f4fff"></path></g></svg>